<svg width="187" height="40" viewBox="0 0 187 40" fill="none" xmlns="http://www.w3.org/2000/svg">
<g filter="url(#filter0_i_38_1558)">
<path fill-rule="evenodd" clip-rule="evenodd" d="M25.5557 11.6853C23.9112 10.5865 21.9778 10 20 10V0C23.9556 0 27.8224 1.17298 31.1114 3.37061C34.4004 5.56823 36.9638 8.69181 38.4776 12.3463C39.9913 16.0008 40.3874 20.0222 39.6157 23.9018C38.844 27.7814 36.9392 31.3451 34.1421 34.1421C31.3451 36.9392 27.7814 38.844 23.9018 39.6157C20.0222 40.3874 16.0008 39.9913 12.3463 38.4776C8.6918 36.9638 5.56823 34.4004 3.37061 31.1114C1.17298 27.8224 0 23.9556 0 20H10C10 21.9778 10.5865 23.9112 11.6853 25.5557C12.7841 27.2002 14.3459 28.4819 16.1732 29.2388C18.0004 29.9957 20.0111 30.1937 21.9509 29.8078C23.8907 29.422 25.6725 28.4696 27.0711 27.0711C28.4696 25.6725 29.422 23.8907 29.8078 21.9509C30.1937 20.0111 29.9957 18.0004 29.2388 16.1732C28.4819 14.3459 27.2002 12.7841 25.5557 11.6853Z" fill="url(#paint0_linear_38_1558)"/>
</g>
<g filter="url(#filter1_i_38_1558)">
<path fill-rule="evenodd" clip-rule="evenodd" d="M9.99999 5.28493e-06C9.99999 1.31322 9.74134 2.61358 9.23879 3.82684C8.73624 5.04009 7.99965 6.14248 7.07106 7.07107C6.14248 7.99966 5.04009 8.73625 3.82683 9.2388C2.61357 9.74134 1.31321 10 4.3711e-07 10L0 20C2.62643 20 5.22715 19.4827 7.65367 18.4776C10.0802 17.4725 12.285 15.9993 14.1421 14.1421C15.9993 12.285 17.4725 10.0802 18.4776 7.65367C19.4827 5.22715 20 2.62643 20 0L9.99999 5.28493e-06Z" fill="#023F7D"/>
</g>
<path d="M55.7543 23.9432H58.3679L59.6818 25.6335L60.9744 27.1392L63.4105 30.1932H60.5412L58.8651 28.1335L58.0057 26.9119L55.7543 23.9432ZM63.6307 21.7273C63.6307 23.3134 63.33 24.6629 62.7287 25.7756C62.1321 26.8883 61.3177 27.7382 60.2855 28.3253C59.258 28.9077 58.1027 29.1989 56.8196 29.1989C55.527 29.1989 54.367 28.9053 53.3395 28.3182C52.312 27.7311 51.5 26.8812 50.9034 25.7685C50.3068 24.6558 50.0085 23.3087 50.0085 21.7273C50.0085 20.1411 50.3068 18.7917 50.9034 17.679C51.5 16.5663 52.312 15.7187 53.3395 15.1364C54.367 14.5492 55.527 14.2557 56.8196 14.2557C58.1027 14.2557 59.258 14.5492 60.2855 15.1364C61.3177 15.7187 62.1321 16.5663 62.7287 17.679C63.33 18.7917 63.6307 20.1411 63.6307 21.7273ZM60.5128 21.7273C60.5128 20.6998 60.3589 19.8333 60.0511 19.1278C59.7481 18.4223 59.3196 17.8873 58.7656 17.5227C58.2116 17.1581 57.563 16.9759 56.8196 16.9759C56.0762 16.9759 55.4276 17.1581 54.8736 17.5227C54.3196 17.8873 53.8887 18.4223 53.581 19.1278C53.2779 19.8333 53.1264 20.6998 53.1264 21.7273C53.1264 22.7547 53.2779 23.6212 53.581 24.3267C53.8887 25.0322 54.3196 25.5672 54.8736 25.9318C55.4276 26.2964 56.0762 26.4787 56.8196 26.4787C57.563 26.4787 58.2116 26.2964 58.7656 25.9318C59.3196 25.5672 59.7481 25.0322 60.0511 24.3267C60.3589 23.6212 60.5128 22.7547 60.5128 21.7273ZM68.984 14.4545V29H65.9087V14.4545H68.984ZM71.5142 29V14.4545H74.5895V26.4645H80.8253V29H71.5142ZM85.7401 29H82.4446L87.4659 14.4545H91.429L96.4432 29H93.1477L89.5043 17.7784H89.3906L85.7401 29ZM85.5341 23.2827H93.3182V25.6832H85.5341V23.2827ZM110.713 18.6378C110.657 18.0649 110.413 17.6198 109.982 17.3026C109.551 16.9853 108.966 16.8267 108.228 16.8267C107.726 16.8267 107.302 16.8977 106.956 17.0398C106.611 17.1771 106.346 17.3688 106.161 17.6151C105.981 17.8613 105.891 18.1406 105.891 18.4531C105.882 18.7135 105.936 18.9408 106.054 19.1349C106.177 19.3291 106.346 19.4972 106.559 19.6392C106.772 19.7765 107.018 19.8973 107.297 20.0014C107.577 20.1009 107.875 20.1861 108.192 20.2571L109.499 20.5696C110.133 20.7116 110.716 20.901 111.246 21.1378C111.776 21.3745 112.236 21.6657 112.624 22.0114C113.012 22.357 113.313 22.7642 113.526 23.233C113.744 23.7017 113.855 24.2391 113.86 24.8452C113.855 25.7353 113.628 26.5071 113.178 27.1605C112.733 27.8092 112.089 28.3134 111.246 28.6733C110.408 29.0284 109.397 29.206 108.213 29.206C107.039 29.206 106.016 29.026 105.145 28.6662C104.279 28.3063 103.602 27.7737 103.114 27.0682C102.631 26.358 102.378 25.4796 102.354 24.4332H105.33C105.363 24.9209 105.503 25.3281 105.749 25.6548C106 25.9768 106.334 26.2206 106.75 26.3864C107.172 26.5473 107.648 26.6278 108.178 26.6278C108.699 26.6278 109.151 26.5521 109.534 26.4006C109.923 26.2491 110.223 26.0384 110.436 25.7685C110.65 25.4986 110.756 25.1884 110.756 24.8381C110.756 24.5114 110.659 24.2367 110.465 24.0142C110.275 23.7917 109.996 23.6023 109.627 23.446C109.262 23.2898 108.815 23.1477 108.284 23.0199L106.701 22.6222C105.474 22.3239 104.506 21.8575 103.796 21.223C103.086 20.5885 102.733 19.7339 102.738 18.6591C102.733 17.7784 102.967 17.009 103.441 16.3509C103.919 15.6927 104.575 15.179 105.408 14.8097C106.241 14.4403 107.188 14.2557 108.249 14.2557C109.328 14.2557 110.271 14.4403 111.076 14.8097C111.885 15.179 112.515 15.6927 112.965 16.3509C113.415 17.009 113.647 17.7713 113.661 18.6378H110.713ZM115.076 14.4545H118.521L121.837 20.7188H121.979L125.296 14.4545H128.741L123.435 23.858V29H120.381V23.858L115.076 14.4545ZM138.311 18.6378C138.254 18.0649 138.01 17.6198 137.58 17.3026C137.149 16.9853 136.564 16.8267 135.825 16.8267C135.323 16.8267 134.9 16.8977 134.554 17.0398C134.208 17.1771 133.943 17.3688 133.759 17.6151C133.579 17.8613 133.489 18.1406 133.489 18.4531C133.479 18.7135 133.534 18.9408 133.652 19.1349C133.775 19.3291 133.943 19.4972 134.156 19.6392C134.369 19.7765 134.616 19.8973 134.895 20.0014C135.174 20.1009 135.473 20.1861 135.79 20.2571L137.097 20.5696C137.731 20.7116 138.313 20.901 138.844 21.1378C139.374 21.3745 139.833 21.6657 140.222 22.0114C140.61 22.357 140.911 22.7642 141.124 23.233C141.341 23.7017 141.453 24.2391 141.457 24.8452C141.453 25.7353 141.225 26.5071 140.776 27.1605C140.33 27.8092 139.687 28.3134 138.844 28.6733C138.006 29.0284 136.995 29.206 135.811 29.206C134.637 29.206 133.614 29.026 132.743 28.6662C131.876 28.3063 131.199 27.7737 130.712 27.0682C130.229 26.358 129.975 25.4796 129.952 24.4332H132.928C132.961 24.9209 133.1 25.3281 133.347 25.6548C133.598 25.9768 133.931 26.2206 134.348 26.3864C134.769 26.5473 135.245 26.6278 135.776 26.6278C136.296 26.6278 136.749 26.5521 137.132 26.4006C137.52 26.2491 137.821 26.0384 138.034 25.7685C138.247 25.4986 138.354 25.1884 138.354 24.8381C138.354 24.5114 138.257 24.2367 138.062 24.0142C137.873 23.7917 137.594 23.6023 137.224 23.446C136.86 23.2898 136.412 23.1477 135.882 23.0199L134.298 22.6222C133.072 22.3239 132.104 21.8575 131.393 21.223C130.683 20.5885 130.33 19.7339 130.335 18.6591C130.33 17.7784 130.565 17.009 131.038 16.3509C131.517 15.6927 132.172 15.179 133.006 14.8097C133.839 14.4403 134.786 14.2557 135.847 14.2557C136.926 14.2557 137.868 14.4403 138.673 14.8097C139.483 15.179 140.113 15.6927 140.562 16.3509C141.012 17.009 141.244 17.7713 141.259 18.6378H138.311ZM142.972 16.9901V14.4545H154.918V16.9901H150.465V29H147.425V16.9901H142.972ZM156.885 29V14.4545H166.686V16.9901H159.961V20.456H166.182V22.9915H159.961V26.4645H166.715V29H156.885ZM169.131 14.4545H172.924L176.93 24.2273H177.1L181.106 14.4545H184.898V29H181.915V19.5327H181.795L178.031 28.929H175.999L172.235 19.4972H172.114V29H169.131V14.4545Z" fill="black"/>
<defs>
<filter id="filter0_i_38_1558" x="0" y="0" width="40" height="44" filterUnits="userSpaceOnUse" color-interpolation-filters="sRGB">
<feFlood flood-opacity="0" result="BackgroundImageFix"/>
<feBlend mode="normal" in="SourceGraphic" in2="BackgroundImageFix" result="shape"/>
<feColorMatrix in="SourceAlpha" type="matrix" values="0 0 0 0 0 0 0 0 0 0 0 0 0 0 0 0 0 0 127 0" result="hardAlpha"/>
<feOffset dy="4"/>
<feGaussianBlur stdDeviation="2"/>
<feComposite in2="hardAlpha" operator="arithmetic" k2="-1" k3="1"/>
<feColorMatrix type="matrix" values="0 0 0 0 0 0 0 0 0 0 0 0 0 0 0 0 0 0 0.25 0"/>
<feBlend mode="normal" in2="shape" result="effect1_innerShadow_38_1558"/>
</filter>
<filter id="filter1_i_38_1558" x="0" y="0" width="20" height="24" filterUnits="userSpaceOnUse" color-interpolation-filters="sRGB">
<feFlood flood-opacity="0" result="BackgroundImageFix"/>
<feBlend mode="normal" in="SourceGraphic" in2="BackgroundImageFix" result="shape"/>
<feColorMatrix in="SourceAlpha" type="matrix" values="0 0 0 0 0 0 0 0 0 0 0 0 0 0 0 0 0 0 127 0" result="hardAlpha"/>
<feOffset dy="4"/>
<feGaussianBlur stdDeviation="2"/>
<feComposite in2="hardAlpha" operator="arithmetic" k2="-1" k3="1"/>
<feColorMatrix type="matrix" values="0 0 0 0 0 0 0 0 0 0 0 0 0 0 0 0 0 0 0.25 0"/>
<feBlend mode="normal" in2="shape" result="effect1_innerShadow_38_1558"/>
</filter>
<linearGradient id="paint0_linear_38_1558" x1="20" y1="7.15256e-07" x2="32" y2="27.5" gradientUnits="userSpaceOnUse">
<stop offset="0.0563256" stop-color="#82BBF5"/>
<stop offset="0.89088" stop-color="#004A95"/>
</linearGradient>
</defs>
</svg>
