<svg width="202" height="40" viewBox="0 0 202 40" fill="none" xmlns="http://www.w3.org/2000/svg">
<g clip-path="url(#clip0_22_3995)">
<g filter="url(#filter0_i_22_3995)">
<path fill-rule="evenodd" clip-rule="evenodd" d="M18.4026 29.8716C20.355 30.1875 22.3573 29.9174 24.1562 29.0954L28.3124 38.1908C24.7146 39.8348 20.7101 40.375 16.8052 39.7432C12.9004 39.1113 9.27064 37.3357 6.37491 34.641C3.47926 31.9462 1.44763 28.4532 0.537088 24.6038C-0.373453 20.7544 -0.122103 16.7214 1.25949 13.0149C2.64094 9.30836 5.0906 6.09473 8.29851 3.78041C11.5064 1.46608 15.3287 0.154985 19.2817 0.0128783C23.2348 -0.129138 27.1412 0.904162 30.507 2.98227C33.8728 5.06037 36.5468 8.08986 38.1908 11.6876L29.0954 15.8438C28.2734 14.0449 26.9364 12.5302 25.2535 11.4911C23.5706 10.4521 21.6174 9.93543 19.6408 10.0065C17.6643 10.0774 15.7532 10.733 14.1493 11.8902C12.5453 13.0474 11.3205 14.6542 10.6297 16.5074C9.93897 18.3608 9.81327 20.3772 10.2686 22.3019C10.7238 24.2266 11.7396 25.9731 13.1874 27.3204C14.6353 28.6679 16.4502 29.5557 18.4026 29.8716Z" fill="url(#paint0_linear_22_3995)"/>
</g>
<path fill-rule="evenodd" clip-rule="evenodd" d="M42.7193 29.4339C41.5743 29.3927 40.4477 29.15 39.404 28.7197C38.3602 28.2893 37.4196 27.6797 36.636 26.9256C35.8524 26.1716 35.2411 25.2879 34.837 24.3249C34.4328 23.362 34.2438 22.3387 34.2806 21.3134L25.5613 21C25.4876 23.0505 25.8657 25.0971 26.6739 27.0229C27.4822 28.9488 28.7049 30.7163 30.2721 32.2243C31.8393 33.7325 33.7204 34.9517 35.8079 35.8124C37.8955 36.6732 40.1486 37.1585 42.4387 37.2409L42.7193 29.4339Z" fill="white"/>
<path d="M64.7543 22.9432H67.3679L68.6818 24.6335L69.9744 26.1392L72.4105 29.1932H69.5412L67.8651 27.1335L67.0057 25.9119L64.7543 22.9432ZM72.6307 20.7273C72.6307 22.3134 72.33 23.6629 71.7287 24.7756C71.1321 25.8883 70.3177 26.7382 69.2855 27.3253C68.258 27.9077 67.1027 28.1989 65.8196 28.1989C64.527 28.1989 63.367 27.9053 62.3395 27.3182C61.312 26.7311 60.5 25.8812 59.9034 24.7685C59.3068 23.6558 59.0085 22.3087 59.0085 20.7273C59.0085 19.1411 59.3068 17.7917 59.9034 16.679C60.5 15.5663 61.312 14.7187 62.3395 14.1364C63.367 13.5492 64.527 13.2557 65.8196 13.2557C67.1027 13.2557 68.258 13.5492 69.2855 14.1364C70.3177 14.7187 71.1321 15.5663 71.7287 16.679C72.33 17.7917 72.6307 19.1411 72.6307 20.7273ZM69.5128 20.7273C69.5128 19.6998 69.3589 18.8333 69.0511 18.1278C68.7481 17.4223 68.3196 16.8873 67.7656 16.5227C67.2116 16.1581 66.563 15.9759 65.8196 15.9759C65.0762 15.9759 64.4276 16.1581 63.8736 16.5227C63.3196 16.8873 62.8887 17.4223 62.581 18.1278C62.2779 18.8333 62.1264 19.6998 62.1264 20.7273C62.1264 21.7547 62.2779 22.6212 62.581 23.3267C62.8887 24.0322 63.3196 24.5672 63.8736 24.9318C64.4276 25.2964 65.0762 25.4787 65.8196 25.4787C66.563 25.4787 67.2116 25.2964 67.7656 24.9318C68.3196 24.5672 68.7481 24.0322 69.0511 23.3267C69.3589 22.6212 69.5128 21.7547 69.5128 20.7273ZM77.984 13.4545V28H74.9087V13.4545H77.984ZM80.5142 28V13.4545H83.5895V25.4645H89.8253V28H80.5142ZM94.7401 28H91.4446L96.4659 13.4545H100.429L105.443 28H102.148L98.5043 16.7784H98.3906L94.7401 28ZM94.5341 22.2827H102.318V24.6832H94.5341V22.2827ZM119.713 17.6378C119.657 17.0649 119.413 16.6198 118.982 16.3026C118.551 15.9853 117.966 15.8267 117.228 15.8267C116.726 15.8267 116.302 15.8977 115.956 16.0398C115.611 16.1771 115.346 16.3688 115.161 16.6151C114.981 16.8613 114.891 17.1406 114.891 17.4531C114.882 17.7135 114.936 17.9408 115.054 18.1349C115.177 18.3291 115.346 18.4972 115.559 18.6392C115.772 18.7765 116.018 18.8973 116.297 19.0014C116.577 19.1009 116.875 19.1861 117.192 19.2571L118.499 19.5696C119.133 19.7116 119.716 19.901 120.246 20.1378C120.776 20.3745 121.236 20.6657 121.624 21.0114C122.012 21.357 122.313 21.7642 122.526 22.233C122.744 22.7017 122.855 23.2391 122.86 23.8452C122.855 24.7353 122.628 25.5071 122.178 26.1605C121.733 26.8092 121.089 27.3134 120.246 27.6733C119.408 28.0284 118.397 28.206 117.213 28.206C116.039 28.206 115.016 28.026 114.145 27.6662C113.279 27.3063 112.602 26.7737 112.114 26.0682C111.631 25.358 111.378 24.4796 111.354 23.4332H114.33C114.363 23.9209 114.503 24.3281 114.749 24.6548C115 24.9768 115.334 25.2206 115.75 25.3864C116.172 25.5473 116.648 25.6278 117.178 25.6278C117.699 25.6278 118.151 25.5521 118.534 25.4006C118.923 25.2491 119.223 25.0384 119.436 24.7685C119.65 24.4986 119.756 24.1884 119.756 23.8381C119.756 23.5114 119.659 23.2367 119.465 23.0142C119.275 22.7917 118.996 22.6023 118.627 22.446C118.262 22.2898 117.815 22.1477 117.284 22.0199L115.701 21.6222C114.474 21.3239 113.506 20.8575 112.796 20.223C112.086 19.5885 111.733 18.7339 111.738 17.6591C111.733 16.7784 111.967 16.009 112.441 15.3509C112.919 14.6927 113.575 14.179 114.408 13.8097C115.241 13.4403 116.188 13.2557 117.249 13.2557C118.328 13.2557 119.271 13.4403 120.076 13.8097C120.885 14.179 121.515 14.6927 121.965 15.3509C122.415 16.009 122.647 16.7713 122.661 17.6378H119.713ZM124.076 13.4545H127.521L130.837 19.7188H130.979L134.296 13.4545H137.741L132.435 22.858V28H129.381V22.858L124.076 13.4545ZM147.311 17.6378C147.254 17.0649 147.01 16.6198 146.58 16.3026C146.149 15.9853 145.564 15.8267 144.825 15.8267C144.323 15.8267 143.9 15.8977 143.554 16.0398C143.208 16.1771 142.943 16.3688 142.759 16.6151C142.579 16.8613 142.489 17.1406 142.489 17.4531C142.479 17.7135 142.534 17.9408 142.652 18.1349C142.775 18.3291 142.943 18.4972 143.156 18.6392C143.369 18.7765 143.616 18.8973 143.895 19.0014C144.174 19.1009 144.473 19.1861 144.79 19.2571L146.097 19.5696C146.731 19.7116 147.313 19.901 147.844 20.1378C148.374 20.3745 148.833 20.6657 149.222 21.0114C149.61 21.357 149.911 21.7642 150.124 22.233C150.341 22.7017 150.453 23.2391 150.457 23.8452C150.453 24.7353 150.225 25.5071 149.776 26.1605C149.33 26.8092 148.687 27.3134 147.844 27.6733C147.006 28.0284 145.995 28.206 144.811 28.206C143.637 28.206 142.614 28.026 141.743 27.6662C140.876 27.3063 140.199 26.7737 139.712 26.0682C139.229 25.358 138.975 24.4796 138.952 23.4332H141.928C141.961 23.9209 142.1 24.3281 142.347 24.6548C142.598 24.9768 142.931 25.2206 143.348 25.3864C143.769 25.5473 144.245 25.6278 144.776 25.6278C145.296 25.6278 145.749 25.5521 146.132 25.4006C146.52 25.2491 146.821 25.0384 147.034 24.7685C147.247 24.4986 147.354 24.1884 147.354 23.8381C147.354 23.5114 147.257 23.2367 147.062 23.0142C146.873 22.7917 146.594 22.6023 146.224 22.446C145.86 22.2898 145.412 22.1477 144.882 22.0199L143.298 21.6222C142.072 21.3239 141.104 20.8575 140.393 20.223C139.683 19.5885 139.33 18.7339 139.335 17.6591C139.33 16.7784 139.565 16.009 140.038 15.3509C140.517 14.6927 141.172 14.179 142.006 13.8097C142.839 13.4403 143.786 13.2557 144.847 13.2557C145.926 13.2557 146.868 13.4403 147.673 13.8097C148.483 14.179 149.113 14.6927 149.562 15.3509C150.012 16.009 150.244 16.7713 150.259 17.6378H147.311ZM151.972 15.9901V13.4545H163.918V15.9901H159.465V28H156.425V15.9901H151.972ZM165.885 28V13.4545H175.686V15.9901H168.961V19.456H175.182V21.9915H168.961V25.4645H175.715V28H165.885ZM178.131 13.4545H181.924L185.93 23.2273H186.1L190.106 13.4545H193.898V28H190.915V18.5327H190.795L187.031 27.929H184.999L181.235 18.4972H181.114V28H178.131V13.4545Z" fill="url(#paint1_linear_22_3995)"/>
</g>
<defs>
<filter id="filter0_i_22_3995" x="0" y="0" width="38.1908" height="44" filterUnits="userSpaceOnUse" color-interpolation-filters="sRGB">
<feFlood flood-opacity="0" result="BackgroundImageFix"/>
<feBlend mode="normal" in="SourceGraphic" in2="BackgroundImageFix" result="shape"/>
<feColorMatrix in="SourceAlpha" type="matrix" values="0 0 0 0 0 0 0 0 0 0 0 0 0 0 0 0 0 0 127 0" result="hardAlpha"/>
<feOffset dy="4"/>
<feGaussianBlur stdDeviation="2"/>
<feComposite in2="hardAlpha" operator="arithmetic" k2="-1" k3="1"/>
<feColorMatrix type="matrix" values="0 0 0 0 0 0 0 0 0 0 0 0 0 0 0 0 0 0 0.25 0"/>
<feBlend mode="normal" in2="shape" result="effect1_innerShadow_22_3995"/>
</filter>
<linearGradient id="paint0_linear_22_3995" x1="47" y1="47" x2="20" y2="28.5" gradientUnits="userSpaceOnUse">
<stop offset="0.0563256" stop-color="#FAFCFF"/>
<stop offset="0.89088" stop-color="#01BEDB"/>
</linearGradient>
<linearGradient id="paint1_linear_22_3995" x1="58" y1="21" x2="196" y2="21" gradientUnits="userSpaceOnUse">
<stop stop-color="white"/>
<stop offset="0.24" stop-color="white"/>
</linearGradient>
<clipPath id="clip0_22_3995">
<rect width="202" height="40" fill="white"/>
</clipPath>
</defs>
</svg>
